<?xml version="1.0" standalone="no"?>
<!DOCTYPE svg PUBLIC "-//W3C//DTD SVG 20010904//EN"
 "http://www.w3.org/TR/2001/REC-SVG-20010904/DTD/svg10.dtd">
<svg version="1.0" xmlns="http://www.w3.org/2000/svg"
 width="641.000000pt" height="641.000000pt" viewBox="0 0 641.000000 641.000000"
 preserveAspectRatio="xMidYMid meet">
<metadata>
Created by potrace 1.14, written by Peter Selinger 2001-2017
</metadata>
<g transform="translate(0.000000,641.000000) scale(0.100000,-0.100000)"
fill="#000000" stroke="none">
<path d="M92 5518 l3 -843 192 -3 193 -2 0 -1460 0 -1460 -195 0 -195 0 0
-845 0 -845 1525 0 1525 0 0 845 0 845 -125 0 -125 0 0 305 0 305 305 0 305 0
0 -305 0 -305 -130 0 -130 0 0 -845 0 -845 1525 0 1525 0 0 845 0 845 -190 0
-190 0 0 1460 0 1460 190 0 190 0 0 845 0 845 -1525 0 -1525 0 0 -845 0 -844
128 -3 127 -3 3 -312 2 -313 -305 0 -305 0 2 313 3 312 123 3 122 3 0 844 0
845 -1525 0 -1525 0 2 -842z"/>
</g>
</svg>
