<svg width="1000" height="1000" xmlns="http://www.w3.org/2000/svg">
 <title>EasterEgg</title>

 <g>
  <title>Layer 1</title>
  <path transform="rotate(180 500 500)" fill="#333333" d="m68.57156,891.42851l431.42845,-782.85698l431.42845,782.85698l-862.8569,0z" id="svg_1" stroke="#ed0929" stroke-width="6"/>
  <path fill="#ed0929" d="m243.65085,358.557l0,0c0,-140.43807 115.76635,-254.28564 258.57136,-254.28564l0,0c68.57736,0 134.34603,26.79072 182.83753,74.47852c48.49155,47.68782 75.73383,112.36635 75.73383,179.80712l0,0c0,140.43805 -115.76635,254.28564 -258.57136,254.28564l0,0c-142.80499,0 -258.57136,-113.84759 -258.57136,-254.28564zm129.28568,0l0,0c0,70.21902 57.88321,127.14282 129.28568,127.14282c71.40252,0 129.28568,-56.9238 129.28568,-127.14282c0,-70.21902 -57.88319,-127.14282 -129.28568,-127.14282l0,0c-71.40247,0 -129.28568,56.92382 -129.28568,127.14282z" id="svg_3" stroke="#033333" stroke-width="0" fill-opacity="0.5"/>
  <path fill="#333333" d="m357.93655,360.00001l61.83673,-128.57134l164.89793,0l61.83671,128.57134l-61.83671,128.57134l-164.89793,0l-61.83673,-128.57134z" id="svg_4" stroke="#000"/>
 </g>
</svg>