<?xml version="1.0" encoding="UTF-8"?>
<svg xmlns="http://www.w3.org/2000/svg" xmlns:xlink="http://www.w3.org/1999/xlink" width="64pt" height="64pt" viewBox="0 0 64 64" version="1.1">
<g id="surface1">
<path style="fill-rule:nonzero;fill:rgb(20%,20%,20%);fill-opacity:1;stroke-width:6;stroke-linecap:butt;stroke-linejoin:miter;stroke:rgb(92.941176%,3.529412%,16.078431%);stroke-opacity:1;stroke-miterlimit:4;" d="M 68.54248 891.418457 L 500 108.581543 L 931.45752 891.418457 Z M 68.54248 891.418457 " transform="matrix(-0.064,0.000000000000000008,-0.000000000000000008,-0.064,64,64)"/>
<path style=" stroke:none;fill-rule:nonzero;fill:rgb(92.941176%,3.529412%,16.078431%);fill-opacity:0.501961;" d="M 15.59375 22.949219 C 15.59375 13.960938 23.003906 6.671875 32.140625 6.671875 C 36.53125 6.671875 40.742188 8.386719 43.84375 11.441406 C 46.949219 14.492188 48.691406 18.632812 48.691406 22.949219 C 48.691406 31.9375 41.28125 39.222656 32.140625 39.222656 C 23.003906 39.222656 15.59375 31.9375 15.59375 22.949219 Z M 23.867188 22.949219 C 23.867188 27.441406 27.574219 31.085938 32.140625 31.085938 C 36.710938 31.085938 40.417969 27.441406 40.417969 22.949219 C 40.417969 18.453125 36.710938 14.808594 32.140625 14.808594 C 27.574219 14.808594 23.867188 18.453125 23.867188 22.949219 Z M 23.867188 22.949219 "/>
<path style="fill-rule:nonzero;fill:rgb(20%,20%,20%);fill-opacity:1;stroke-width:1;stroke-linecap:butt;stroke-linejoin:miter;stroke:rgb(0%,0%,0%);stroke-opacity:1;stroke-miterlimit:4;" d="M 357.910156 359.985352 L 419.799805 231.445312 L 584.655762 231.445312 L 646.484375 359.985352 L 584.655762 488.586426 L 419.799805 488.586426 Z M 357.910156 359.985352 " transform="matrix(0.064,0,0,0.064,0,0)"/>
</g>
</svg>
